<svg version="1" xmlns="http://www.w3.org/2000/svg" width="346.667" height="346.667" viewBox="0 0 260.000000 260.000000"><path d="M45 42.5C45 53 45 53 47.4 53c2.1 0 2.5-.5 2.8-3.8l.3-3.7 2 3.7c1.5 3 2.4 3.8 4.7 3.8 3.4 0 3.5-1.1.3-6.6-2.1-3.6-2.3-4.6-1.4-7.3.6-1.7 1.7-3.1 2.5-3.1s1.4-.9 1.4-2c0-1.6-.7-2-3-2-2.7 0-3.4.6-5 4.2l-2 4.3v-4.3c0-3.8-.2-4.2-2.5-4.2H45v10.5z"/><path d="M64.7 34c-5.2 4.1-4.3 14.6 1.3 17.5 4.3 2.2 8.4 1.9 11.9-1.1 2.8-2.3 3.1-3.2 3.1-8 0-4.5-.4-5.9-2.5-7.9-3.2-3.2-10-3.5-13.8-.5zM75 38.9c1.7 3.2 1.1 6-1.5 7.7-2.4 1.6-2.7 1.6-4.5-.1-2.2-2-2.6-6.5-.8-8.3 1.8-1.8 5.6-1.4 6.8.7zM84 42.5V53h2.5c2.3 0 2.5-.4 2.5-4 0-3.8.2-4 3-4s3 .2 3 4 .2 4 3 4h3V32h-3c-2.8 0-3 .2-3 4s-.2 4-3 4-3-.2-3-4c0-3.6-.2-4-2.5-4H84v10.5zM104 42.5V53h7c5.7 0 7.4-.4 9-2 2.1-2.1 2.7-6.5 1-7.5-.6-.4-.8-2.1-.4-4 .3-1.8.1-4.2-.5-5.4-1-1.8-2.1-2.1-8.6-2.1H104v10.5zm11.8-4.3c-.7 2-6.8 2.3-6.8.4 0-1.2 1-1.6 3.6-1.6 2.4 0 3.4.4 3.2 1.2zm0 8c-.7 2-6.8 2.3-6.8.4 0-1.2 1-1.6 3.6-1.6 2.4 0 3.4.4 3.2 1.2zM124 42.5V53h8c7.9 0 8 0 8-2.5 0-2.4-.3-2.5-5.5-2.5-4.2 0-5.5-.3-5.5-1.5 0-1.1 1.2-1.5 5-1.5 4.7 0 5-.2 5-2.5s-.3-2.5-5-2.5c-3.8 0-5-.4-5-1.5 0-1.2 1.3-1.5 5.5-1.5 5.2 0 5.5-.1 5.5-2.5 0-2.5-.1-2.5-8-2.5h-8v10.5zM143 42.5V53h2.5c2.3 0 2.5-.4 2.5-4 0-3.9.1-4 3.3-4 5 0 7.7-2.4 7.7-6.9 0-5.2-1.3-6.1-9.2-6.1H143v10.5zm10.4-4.6c.3.5-.1 1.2-1 1.5-2.7 1-4.4.7-4.4-.9s4.5-2.1 5.4-.6zM161 34.5c0 2.1.5 2.5 3 2.5h3v8c0 7.9 0 8 2.5 8s2.5-.1 2.5-8v-8h3c2.5 0 3-.4 3-2.5 0-2.5-.1-2.5-8.5-2.5s-8.5 0-8.5 2.5zM179 42.5V53h8c7.9 0 8 0 8-2.5 0-2.4-.3-2.5-5.5-2.5-4.2 0-5.5-.3-5.5-1.5 0-1.1 1.2-1.5 5-1.5 4.7 0 5-.2 5-2.5s-.3-2.5-5-2.5c-3.8 0-5-.4-5-1.5s1.2-1.5 5-1.5c4.7 0 5-.2 5-2.5 0-2.4-.2-2.5-7.5-2.5H179v10.5zM198 42.5V53h2.5c2.2 0 2.5-.4 2.5-3.9 0-3.8.1-3.8 4.2-4.4 4.7-.6 6.8-2.7 6.8-6.7 0-4.3-2.8-6-9.8-6H198v10.5zm9.8-4.3c-.7 2-4.8 2.3-4.8.4 0-1.1.9-1.6 2.6-1.6 1.6 0 2.4.5 2.2 1.2zM46 102v38h76V64H46v38zm40-11.5v9.5h9c8.9 0 9 0 9 2.5s-.1 2.5-9 2.5h-9v9.5c0 9.5 0 9.5-2.5 9.5s-2.5 0-2.5-9.5V105h-9c-8.9 0-9 0-9-2.5s.1-2.5 9-2.5h9v-9.5c0-9.5 0-9.5 2.5-9.5s2.5 0 2.5 9.5zM130 102v38h76.1l-.3-30.8-.3-30.9-2.8-4.1c-1.5-2.3-4.6-5.4-6.9-6.9l-4.1-2.8-30.9-.3-30.8-.3V102zm56-.5v2.5h-36v-5h36v2.5zM217 73c-2.5 2.5-2.7 9.1-.4 11.4 3.9 4 11.3 2.6 13.4-2.4 1.3-3.1.6-6.5-1.8-9.3-2.1-2.4-8.6-2.3-11.2.3zm7.8 5.4c.4 3.2-1.5 5.1-3.5 3.4-1.4-1.1-1.8-5-.6-6.2 1.5-1.5 3.8.1 4.1 2.8zM215 106v8h3c2.8 0 3-.3 3-3.5 0-2.4.5-3.5 1.5-3.5s1.5 1.1 1.5 3.5c0 3.2.2 3.5 3 3.5h3V98h-3c-2.5 0-3 .4-3 2.5 0 1.6-.6 2.5-1.5 2.5s-1.5-.9-1.5-2.5c0-2.1-.5-2.5-3-2.5h-3v8zM216 131c0 4.7-.3 6-1.5 6-.8 0-1.5.9-1.5 2 0 1.5.7 2 2.8 2 4 0 5.2-1.7 5.2-7.2 0-4.1.3-4.8 2-4.8 1.8 0 2 .7 2 6 0 5.7.1 6 2.5 6 2.5 0 2.5-.1 2.5-8v-8h-14v6zM46 174.5c0 32.2.3 34 5.8 39.9 5.9 6.3 7.6 6.6 40.5 6.6H122v-76H46v29.5zm31.6 3.6l5.2 5.2 6-5.2c4.3-3.7 6.7-5.2 8.3-4.9 2.1.3 1.6 1-4.4 6.3l-6.7 6 7.2 7.2c7.1 7.1 7.2 7.3 4.3 7.3-2.2 0-4.3-1.4-8.7-5.7l-5.8-5.7-5.8 5.7c-4.5 4.4-6.4 5.7-8.7 5.7-2.9-.1-2.7-.3 4.5-7l7.5-6.9-6.5-6.6c-5.7-5.8-6.2-6.5-4-6.5 1.6 0 4.2 1.8 7.6 5.1zM130 183v38h76v-76h-76v38zm57-5v3h-38v-6h38v3zm0 13v3h-38v-6h38v3zM217.2 153.2c-1.9 1.9-1.5 4.8.7 4.8 1.1 0 2.3-.5 2.6-1 .8-1.3 2.5-1.3 2.5 0 0 .5-1.2 1.3-2.7 1.6-3.9.9-5.3 2.3-5.3 5 0 3.1 2.3 4.2 8.8 4.2l5.2.1v-6c0-8.3-1-9.9-6.3-9.9-2.4 0-4.8.5-5.5 1.2zm5.3 9.7c-.3.6-1.1.8-1.7.5-.6-.4-.5-.9.3-1.5 1.6-1 2.3-.4 1.4 1zM218 175.5c0 .9 1.3 2.1 2.9 2.8 2.7 1.2 2.8 1.4 1.5 3.7l-1.3 2.5-.1-2.8c0-2.3-.4-2.7-3-2.7h-3.1l.3 7.7c.3 7.5.4 7.8 2.8 8.1 1.8.2 3-.5 4.2-2.5l1.7-2.8.1 2.7c0 2.4.4 2.8 3 2.8h3v-8c0-7.9 0-8-2.6-8-2.3 0-2.4-.1-1-1.6.9-.8 1.6-2 1.6-2.5 0-1.3-3.4-1.1-4.7.2-.8.8-1.3.8-1.7 0-1.1-1.6-3.6-1.3-3.6.4zM215 214v8h3c2.8 0 3-.3 3-3.5 0-2.4.5-3.5 1.5-3.5s1.5 1.1 1.5 3.5c0 3.2.2 3.5 3 3.5h3v-16h-3c-2.5 0-3 .4-3 2.5 0 1.6-.6 2.5-1.5 2.5s-1.5-.9-1.5-2.5c0-2.1-.5-2.5-3-2.5h-3v8z"/></svg>